#!OML:ASF Y:\EmotionMaleHayes\Project 1\Capture day 1\Session 1\Male1.ASF
:FULLY-SPECIFIED
:DEGREES
523
root 12.4584 16.781 -7.34649 -0.430799 138.82 -3.67205
lowerback 9.15887 3.37643 -1.21806
upperback 3.97982 4.62747 -2.46823
thorax -0.88012 2.43949 -2.31443
lowerneck -18.2643 -9.39061 -3.84417
upperneck 23.2975 -14.7292 12.0409
head 11.9563 -5.2119 2.74366
rclavicle 1.11419e-013 -4.1546e-014
rhumerus -24.7064 22.7159 -88.1068
rradius 73.8772
rwrist -21.4464
rhand -22.3063 -31.1757
rfingers 7.12502
rthumb 4.11295 -61.1157
lclavicle 1.11419e-013 -4.1546e-014
lhumerus -61.4959 -18.0508 86.9498
lradius 43.7041
lwrist 17.5777
lhand -28.8256 -27.2278
lfingers 7.12502
lthumb -2.18329 2.74078
rfemur 8.77332 9.16198 33.4699
rtibia 13.3377
rfoot -22.9945 -1.96643
rtoes 34.0107
lfemur -22.393 3.13297 -5.15615
ltibia 26.8443
lfoot -14.6437 16.4938
ltoes -14.6799
524
root 12.5642 16.7186 -7.55284 -0.470389 137.723 -4.03345
lowerback 8.99592 3.57175 -1.22083
upperback 3.87202 4.88018 -2.66338
thorax -0.877414 2.56485 -2.53051
lowerneck -18.2438 -9.27128 -3.65791
upperneck 23.2775 -14.5909 11.9738
head 11.9095 -5.14456 2.71487
rclavicle -1.81739e-013 4.83047e-014
rhumerus -23.1776 23.64 -87.0949
rradius 76.1357
rwrist -21.2653
rhand -22.769 -31.3597
rfingers 7.12502
rthumb 3.66616 -61.3079
lclavicle -1.81739e-013 4.83047e-014
lhumerus -63.4018 -17.8569 86.8166
lradius 43.9551
lwrist 18.2348
lhand -28.44 -27.708
lfingers 7.12502
lthumb -1.81089 2.26403
rfemur 9.0245 9.88641 33.3228
rtibia 14.5958
rfoot -24.076 -2.11634
rtoes 32.032
lfemur -22.7035 3.0227 -4.95364
ltibia 23.5286
lfoot -14.6088 15.5815
ltoes -15.9133
525
root 12.6764 16.6492 -7.75416 -0.0596868 136.695 -3.42898
lowerback 9.02994 3.77294 -0.659642
upperback 3.83001 5.18175 -2.58431
thorax -0.888339 2.71572 -2.7922
lowerneck -18.3755 -9.18504 -3.45966
upperneck 23.3532 -14.4956 11.8155
head 11.9242 -5.09554 2.63832
rclavicle -5.57591e-014 7.7526e-015
rhumerus -21.5654 24.5698 -85.6795
rradius 78.3691
rwrist -21.6046
rhand -22.9631 -31.3008
rfingers 7.12502
rthumb 3.47877 -61.2521
lclavicle -5.57591e-014 7.7526e-015
lhumerus -65.356 -17.9263 86.8008
lradius 44.5741
lwrist 19.2093
lhand -27.6976 -26.8178
lfingers 7.12502
lthumb -1.09388 3.15919
rfemur 9.4068 10.7296 34.1824
rtibia 16.0237
rfoot -25.1522 -2.3826
rtoes 32.1255
lfemur -22.8633 2.79658 -3.85472
ltibia 20.6333
lfoot -14.3836 13.9508
ltoes -19.8743
526
root 12.7989 16.5764 -7.95893 0.34622 135.861 -2.82814
lowerback 8.8826 3.90256 -0.319903
upperback 3.87728 5.37906 -2.37026
thorax -0.740831 2.81293 -2.76274
lowerneck -18.5192 -9.10784 -3.47468
upperneck 23.4041 -14.371 11.7209
head 11.9524 -5.04885 2.6229
rclavicle -2.73826e-014 1.45113e-014
rhumerus -19.8418 25.4926 -84.1181
rradius 80.4322
rwrist -22.3958
rhand -23.0623 -31.1278
rfingers 7.12502
rthumb 3.3829 -61.0807
lclavicle -2.73826e-014 1.45113e-014
lhumerus -67.0538 -17.667 86.7535
lradius 45.1048
lwrist 19.4032
lhand -26.9253 -25.8109
lfingers 7.12502
lthumb -0.347979 4.16852
rfemur 9.84943 11.4336 35.0582
rtibia 17.3367
rfoot -26.2802 -2.73306
rtoes 32.6288
lfemur -23.119 2.07388 -2.80022
ltibia 18.4519
lfoot -14.3354 11.7122
ltoes -23.8775
527
root 12.919 16.499 -8.16585 0.518402 135.163 -2.65178
lowerback 8.66638 3.97577 -0.256007
upperback 3.91856 5.48222 -2.27328
thorax -0.578915 2.86341 -2.68679
lowerneck -18.2741 -9.06468 -3.51279
upperneck 23.0633 -14.2953 11.8504
head 11.7808 -5.03724 2.6932
rclavicle 8.39368e-014 2.5842e-015
rhumerus -18.159 26.0804 -82.7796
rradius 82.3123
rwrist -22.8578
rhand -23.0588 -31.1875
rfingers 7.12502
rthumb 3.38633 -61.1404
lclavicle 8.39368e-014 2.5842e-015
lhumerus -68.5608 -17.4539 86.76
lradius 45.285
lwrist 18.6452
lhand -26.8434 -25.9614
lfingers 7.12502
lthumb -0.268801 4.01814
rfemur 10.1662 11.8123 35.4446
rtibia 18.6914
rfoot -27.4209 -3.15312
rtoes 31.7306
lfemur -23.6338 0.88845 -2.13265
ltibia 17.0746
lfoot -14.4094 9.06945
ltoes -24.199
528
root 13.0322 16.4145 -8.36267 0.563773 134.434 -2.55116
lowerback 8.67013 4.05948 -0.269292
upperback 3.97199 5.59416 -2.19853
thorax -0.529587 2.91902 -2.60963
lowerneck -17.8638 -9.19766 -3.80664
upperneck 22.3538 -14.475 12.4412
head 11.5282 -5.13254 2.92793
rclavicle -1.26725e-014 -2.16675e-014
rhumerus -16.4209 26.3296 -81.3807
rradius 84.0923
rwrist -23.3682
rhand -23.0601 -31.3194
rfingers 7.12502
rthumb 3.38508 -61.2723
lclavicle -1.26725e-014 -2.16675e-014
lhumerus -69.8788 -17.3382 86.7385
lradius 45.3402
lwrist 17.7783
lhand -27.2228 -26.367
lfingers 7.12502
lthumb -0.635264 3.6118
rfemur 10.3878 12.1741 35.7719
rtibia 20.3375
rfoot -28.5645 -3.56013
rtoes 31.223
lfemur -24.3062 -0.175523 -1.50056
ltibia 16.6164
lfoot -14.4301 6.02291
ltoes -20.8454
529
root 13.1482 16.3271 -8.56195 0.60285 133.766 -2.40979
lowerback 8.64896 4.13422 -0.354724
upperback 4.0818 5.69132 -1.98269
thorax -0.430878 2.9652 -2.34162
lowerneck -17.9861 -8.96542 -3.28121
upperneck 22.3489 -14.126 11.7382
head 11.4066 -5.02532 2.64304
rclavicle 5.72997e-014 -1.40143e-014
rhumerus -14.6623 26.5801 -79.6827
rradius 85.8174
rwrist -24.2885
rhand -22.7824 -31.4178
rfingers 7.12502
rthumb 3.6532 -61.3662
lclavicle 5.72997e-014 -1.40143e-014
lhumerus -70.9012 -16.9324 86.6713
lradius 45.2901
lwrist 16.8105
lhand -27.6208 -26.6938
lfingers 7.12502
lthumb -1.01971 3.28349
rfemur 10.6813 12.5699 36.2185
rtibia 22.0848
rfoot -29.6575 -4.10248
rtoes 30.8609
lfemur -24.9772 -0.958152 -1.00711
ltibia 16.8232
lfoot -13.8405 3.0584
ltoes -20.092
530
root 13.273 16.2389 -8.76198 0.634419 133.196 -2.09756
lowerback 8.64194 4.22891 -0.353805
upperback 4.27674 5.82961 -1.7265
thorax -0.247153 3.036 -2.08008
lowerneck -17.8899 -8.9898 -3.41824
upperneck 21.9376 -14.1294 11.911
head 11.2601 -5.05246 2.72383
rclavicle 2.72087e-014 -3.60794e-014
rhumerus -13.0182 26.6592 -78.0116
rradius 87.4493
rwrist -25.2663
rhand -22.5146 -31.4995
rfingers 7.12502
rthumb 3.91186 -61.4433
lclavicle 2.72087e-014 -3.60794e-014
lhumerus -71.6751 -16.8332 86.7021
lradius 45.2057
lwrist 16.0431
lhand -27.6681 -27.0329
lfingers 7.12502
lthumb -1.06536 2.94415
rfemur 11.0793 12.9283 36.9299
rtibia 24.1024
rfoot -30.6491 -5.08234
rtoes 29.0654
lfemur -25.3668 -1.66729 -0.525983
ltibia 17.3517
lfoot -12.5352 0.477456
ltoes -21.8076
531
root 13.388 16.1403 -8.95877 0.50856 132.658 -1.9237
lowerback 8.85979 4.25515 -0.241436
upperback 4.43141 5.88409 -1.62263
thorax -0.20421 3.06935 -2.05085
lowerneck -18.1609 -8.78372 -2.86539
upperneck 22.0803 -13.8655 11.2961
head 11.2428 -4.95037 2.45066
rclavicle 1.53511e-013 -3.23025e-014
rhumerus -11.6084 26.712 -76.78
rradius 88.869
rwrist -25.6139
rhand -22.9268 -31.5313
rfingers 7.12502
rthumb 3.51377 -61.4821
lclavicle 1.53511e-013 -3.23025e-014
lhumerus -72.3892 -16.905 86.7305
lradius 45.179
lwrist 15.5565
lhand -27.5106 -27.1233
lfingers 7.12502
lthumb -0.913215 2.85445
rfemur 11.1691 13.1376 37.381
rtibia 26.6949
rfoot -31.5043 -5.88958
rtoes 26.4955
lfemur -25.8078 -2.40941 -0.27912
ltibia 18.6997
lfoot -10.539 -0.374575
ltoes -25.5132
532
root 13.5074 16.0404 -9.14779 -0.0763642 132.166 -2.06607
lowerback 9.5131 4.25213 -0.296063
upperback 4.52726 5.88379 -1.62979
thorax -0.465859 3.07463 -2.08117
lowerneck -18.0528 -8.72443 -2.7511
upperneck 21.8973 -13.7966 11.3086
head 11.1405 -4.92531 2.45058
rclavicle 4.34096e-014 -1.04362e-014
rhumerus -10.5827 26.6343 -76.002
rradius 90.1312
rwrist -25.7084
rhand -23.4221 -31.6197
rfingers 7.12502
rthumb 3.03543 -61.5778
lclavicle 4.34096e-014 -1.04362e-014
lhumerus -73.1133 -16.9899 86.6576
lradius 45.161
lwrist 15.2157
lhand -27.5435 -27.0569
lfingers 7.12502
lthumb -0.945047 2.92072
rfemur 11.3172 13.2992 37.6407
rtibia 29.4977
rfoot -31.9966 -6.61433
rtoes 24.0588
lfemur -26.0646 -3.07301 -0.40952
ltibia 21.1463
lfoot -8.75756 -1.60519
ltoes -26.9472
533
root 13.6242 15.9448 -9.33227 -0.209483 131.646 -1.6675
lowerback 10.1721 4.26601 0.0162939
upperback 4.60678 5.93546 -1.53482
thorax -0.719501 3.10779 -2.21519
lowerneck -17.5499 -8.72051 -2.84884
upperneck 21.2333 -13.7846 11.7331
head 10.8429 -4.9374 2.6309
rclavicle 1.92324e-014 1.49089e-016
rhumerus -9.71875 26.4454 -75.314
rradius 91.3228
rwrist -26.0717
rhand -24.1802 -31.9194
rfingers 7.12502
rthumb 2.30336 -61.8867
lclavicle 1.92324e-014 1.49089e-016
lhumerus -73.5914 -17.2066 86.6497
lradius 45.0973
lwrist 15.3666
lhand -27.5489 -26.9299
lfingers 7.12502
lthumb -0.95023 3.04771
rfemur 11.1913 13.3569 38.2545
rtibia 32.5694
rfoot -31.9848 -7.53299
rtoes 20.7091
lfemur -26.4837 -3.43295 -0.14086
ltibia 24.6174
lfoot -7.52951 -3.36724
ltoes -23.8016
534
root 13.7401 15.8526 -9.51576 0.280384 131.207 -0.605252
lowerback 10.6652 4.2126 0.731776
upperback 4.70362 5.94109 -1.25361
thorax -0.845635 3.1196 -2.35952
lowerneck -17.3446 -8.8486 -3.25125
upperneck 20.8178 -13.9304 12.22
head 10.7382 -5.01336 2.84596
rclavicle -2.37299e-015 -7.45443e-015
rhumerus -8.96531 26.2596 -74.6541
rradius 92.4384
rwrist -26.4382
rhand -25.2942 -32.3486
rfingers 7.12502
rthumb 1.22743 -62.3248
lclavicle -2.37299e-015 -7.45443e-015
lhumerus -73.5909 -17.1786 86.638
lradius 44.6892
lwrist 15.4628
lhand -27.4673 -26.594
lfingers 7.12502
lthumb -0.871377 3.38397
rfemur 10.8329 13.3392 39.308
rtibia 35.8602
rfoot -31.4545 -8.1967
rtoes 17.9844
lfemur -27.1876 -3.46638 0.593122
ltibia 28.3726
lfoot -7.81674 -5.99826
ltoes -18.7943
535
root 13.8581 15.7599 -9.70298 -0.47337 130.762 -1.04493
lowerback 11.2054 4.1968 0.508712
upperback 4.90027 5.92224 -1.233
thorax -0.958972 3.11741 -2.2513
lowerneck -17.3589 -8.88998 -3.55934
upperneck 20.555 -13.9565 12.5132
head 10.6972 -5.03448 2.99044
rclavicle -1.47231e-013 1.13556e-014
rhumerus -8.37178 26.1229 -74.1263
rradius 93.4223
rwrist -26.7661
rhand -25.9856 -32.7074
rfingers 7.12502
rthumb 0.559667 -62.6864
lclavicle -1.47231e-013 1.13556e-014
lhumerus -73.1614 -17.0329 86.4921
lradius 44.0381
lwrist 15.3896
lhand -27.3587 -26.1581
lfingers 7.12502
lthumb -0.766528 3.82022
rfemur 10.7187 13.4676 39.2641
rtibia 39.0608
rfoot -30.4291 -8.40831
rtoes 17.5667
lfemur -27.5546 -3.63866 0.0752878
ltibia 31.346
lfoot -9.32083 -6.90796
ltoes -18.5221
536
root 13.9772 15.672 -9.89299 -3.38326 130.337 -4.24076
lowerback 11.6808 4.24131 -1.50743
upperback 5.21425 5.81176 -1.71777
thorax -1.03418 3.06231 -1.6531
lowerneck -17.4682 -8.83976 -3.62916
upperneck 20.2349 -13.8765 12.6506
head 10.6117 -5.0084 3.05498
rclavicle 3.43765e-014 6.60027e-015
rhumerus -7.87384 26.4164 -73.767
rradius 94.3471
rwrist -27.1712
rhand -26.1818 -32.8473
rfingers 7.12502
rthumb 0.370198 -62.8267
lclavicle 3.43765e-014 6.60027e-015
lhumerus -72.6039 -16.9687 86.4746
lradius 43.4755
lwrist 15.5487
lhand -27.5258 -25.9637
lfingers 7.12502
lthumb -0.927944 4.014
rfemur 10.1791 12.9195 36.5076
rtibia 42.4923
rfoot -28.7366 -8.00838
rtoes 17.165
lfemur -27.4201 -4.00229 -2.62232
ltibia 33.2915
lfoot -11.0324 -1.68466
ltoes -34.9375
537
root 14.0971 15.6043 -10.0742 -6.52881 130.029 -8.11516
lowerback 11.8335 4.25885 -4.04778
upperback 5.48449 5.61914 -2.35803
thorax -0.994365 2.96071 -0.891743
lowerneck -17.6751 -8.5113 -2.96267
upperneck 20.094 -13.4529 12.0623
head 10.4599 -4.84306 2.80071
rclavicle -3.76744e-014 2.50407e-014
rhumerus -7.52287 26.8218 -73.8083
rradius 95.0938
rwrist -27.266
rhand -25.9491 -32.7726
rfingers 7.12502
rthumb 0.594904 -62.7516
lclavicle -3.76744e-014 2.50407e-014
lhumerus -71.9092 -16.8935 86.4594
lradius 42.8649
lwrist 15.6308
lhand -27.8657 -26.1353
lfingers 7.12502
lthumb -1.25625 3.84079
rfemur 9.44758 12.9024 33.4482
rtibia 45.793
rfoot -26.5015 -7.87935
rtoes 18.6568
lfemur -27.4131 -4.00412 -5.79669
ltibia 34.9899
lfoot -11.1245 0.735556
ltoes -39.2832
